<svg id="Layer_1" data-name="Layer 1" xmlns="http://www.w3.org/2000/svg" xmlns:xlink="http://www.w3.org/1999/xlink" viewBox="0 0 363.81 449.64"><defs><linearGradient id="linear-gradient" x1="212.29" y1="331.86" x2="318.26" y2="331.86" gradientUnits="userSpaceOnUse"><stop offset="0" stop-color="#010101" stop-opacity="0"/><stop offset="0.95" stop-color="#010101"/></linearGradient><linearGradient id="linear-gradient-2" x1="145.2" y1="22.32" x2="336.71" y2="4.68" gradientTransform="translate(59.57 52.55) rotate(7.67)" gradientUnits="userSpaceOnUse"><stop offset="0" stop-color="#fff" stop-opacity="0"/><stop offset="0.95" stop-color="#fff"/></linearGradient><linearGradient id="linear-gradient-3" x1="115.58" y1="24.75" x2="282.18" y2="9.39" xlink:href="#linear-gradient-2"/><linearGradient id="linear-gradient-4" x1="206.4" y1="11.61" x2="214.18" y2="81.18" gradientTransform="translate(59.57 52.55) rotate(7.67)" xlink:href="#linear-gradient"/><linearGradient id="linear-gradient-5" x1="236.52" y1="85.81" x2="256.3" y2="85.81" gradientTransform="translate(-4.35 -1.38) rotate(-0.56)" xlink:href="#linear-gradient"/><linearGradient id="linear-gradient-6" x1="270.64" y1="85.81" x2="290.43" y2="85.81" gradientTransform="translate(-4.35 -1.38) rotate(-0.56)" xlink:href="#linear-gradient"/><linearGradient id="linear-gradient-7" x1="301.07" y1="424.43" x2="336.22" y2="424.43" xlink:href="#linear-gradient"/><linearGradient id="linear-gradient-8" x1="208.63" y1="426.94" x2="243.53" y2="426.94" xlink:href="#linear-gradient"/><linearGradient id="linear-gradient-9" x1="253.23" y1="183.67" x2="35.23" y2="228.53" xlink:href="#linear-gradient"/><linearGradient id="linear-gradient-10" x1="304.27" y1="171.71" x2="292.47" y2="220.02" xlink:href="#linear-gradient"/><linearGradient id="linear-gradient-11" x1="313.93" y1="152.37" x2="202.24" y2="176.15" xlink:href="#linear-gradient"/><linearGradient id="linear-gradient-12" x1="217.12" y1="102.53" x2="115.75" y2="91.32" xlink:href="#linear-gradient"/></defs><title>Smiley - Happy</title><path d="M453.93,364.73c-2.26,3.47-4.62,6.82-7.08,10-55.44,73.26-153.77,83.2-238.78,80.68-24.82-.73-50.94-1.85-72.07-14.91-6.59-4.08-12.58-9.34-16.34-16.09-3.35-6.06-4.75-13-5.9-19.82q-2.49-14.86-3.76-29.86a364.43,364.43,0,0,1,9.91-119.48c4.21-16.48,9.59-32.88,10.07-49.87.86-31-14.69-61.11-11.22-91.92,3-26.7,20.11-50,40.63-67.33C192.84,17.9,237.48,2.48,281,6.85s85.14,29.25,107.28,67c25.08,42.73,24.12,96.45,46.65,140.58,10.39,20.39,25.65,38.39,32.94,60.09C477.92,304.35,471.17,338.38,453.93,364.73Z" transform="translate(-108.76 -6.11)" fill="#68e1fd" opacity="0.24" style="isolation:isolate"/><path d="M446.85,374.73c-55.44,73.26-153.77,83.2-238.78,80.68-24.82-.73-50.94-1.85-72.07-14.91-6.59-4.08-12.58-9.34-16.34-16.09-3.35-6.06-4.75-13-5.9-19.82q-2.49-14.86-3.76-29.86Z" transform="translate(-108.76 -6.11)" fill="#68e1fd" opacity="0.24" style="isolation:isolate"/><path d="M167.71,378.13q91.1-3.44,182.26.12c2.76,3.26-.42,8.07-3.45,11.08l-33.68,33.4c-3.74,3.71-8,7.65-13.26,7.84a10.93,10.93,0,0,1-10.68-8.22c-.67-2.94-.07-6.12-1.12-9-2-5.5-9.09-7.11-14.95-6.76-23.59,1.44-39.21,32.39-62.93,25.93-10.64-2.9-19.44-12.93-25.87-21.32C182,408.61,166.47,378.17,167.71,378.13Z" transform="translate(-108.76 -6.11)" fill="#68e1fd" opacity="0.6" style="isolation:isolate"/><path d="M200.41,82.68a20.68,20.68,0,0,1-.08-10.75,25.52,25.52,0,0,1,5.56-9.82s4.25-1.48,7.73-.12-1.44,7.62-1,10.59,3.3-5.31,5-4.59S215,80.13,211.79,81.56" transform="translate(-108.76 -6.11)" fill="#c48067"/><path d="M290.41,247a124.11,124.11,0,0,1-21.51,8.76c-6.21,1.78-17.14,3.06-25.71,3-6.82,0-12.17-.89-12.52-3-.55-3.16-7.4-52.35-11.6-86.29-.7-5.64-1.34-10.86-1.82-15.39-1.11-9.71-1.69-16.18-1.31-16.57.74-.73,4.24-.25,8.1.61,5.38,1.15,11.41,3,11.41,3l20-.7s17.3,1.4,19.69,3S290.41,247,290.41,247Z" transform="translate(-108.76 -6.11)" fill="#68e1fd"/><path d="M324.76,183.21a15.87,15.87,0,0,1-2.14,4.81s0,0,0,0c-1.88,2.52-3.89,1.88-6,1.88-3.79,0-26.16-5.13-34.85-8.79h0c-2-.83-3.28-1.6-3.44-2.2-.79-3.19-2.32-3.32-2.32-3.32l-3.22-33.29s4.78,1.59,7.14,4.78S327.15,175.24,324.76,183.21Z" transform="translate(-108.76 -6.11)" fill="#68e1fd"/><path d="M234.84,176.67a6.63,6.63,0,0,1-.67,2.11s-10.67-2.81-15.1-9.31a9,9,0,0,1-.74-1.18c-3.47-6.59-20.32-34.22-23.45-45.65,0,0,0,0,0-.07a9.43,9.43,0,0,1-.51-3.28c.7-9.08,5.13-39,5.13-39s.48-2.45,6.25-1.69a10,10,0,0,1,5.1,2,0,0,0,0,1,0,0,4.77,4.77,0,0,1,1.53,2.07l.51,35.08.64,1.18L224,138.12,230.51,150S236.46,168.42,234.84,176.67Z" transform="translate(-108.76 -6.11)" fill="#68e1fd"/><path d="M299.52,411.86s3.37,12.71,4.94,13.64,7.09-2,10.28-4.32,2.06-7.24,2.06-7.24l-1.39-3.86Z" transform="translate(-108.76 -6.11)" fill="#c48067"/><path d="M214.92,405.74s-6.14,17.28-5.52,19,8.12-.79,12-.54,5.45-5.84,5.45-5.84l1.4-3.85Z" transform="translate(-108.76 -6.11)" fill="#c48067"/><path d="M233.86,131.54s2.38,10.35,1.59,14.33S241,161,249,161s8-13.53,8-15.13-2.39-2.38-1.59-6.37S234.65,126.76,233.86,131.54Z" transform="translate(-108.76 -6.11)" fill="#c48067"/><path d="M255.36,139.5c-.62,3.08.66,4.25,1.28,5.36a10,10,0,0,1-6.56,2.91c-4.78,0-11.94-4-15.13-11.15-.06-.13-.11-.27-.17-.4-.45-2.63-.92-4.68-.92-4.68C234.65,126.76,256.15,135.52,255.36,139.5Z" transform="translate(-108.76 -6.11)" fill="#b5765e"/><path d="M235.6,144.39s6.42,15,11.89,16.61c0,0,1.5.8-2.49,3.19s-15.13-9.56-13.53-18.32a6.55,6.55,0,0,1,4-5.08Z" transform="translate(-108.76 -6.11)" fill="#fff"/><path d="M255.36,141.1s1.76,11.05-2.7,18.66c0,0,1.9,2.84,3.49,2.84s5.58-9.56,4-16.73C259.2,141.69,256.15,140,255.36,141.1Z" transform="translate(-108.76 -6.11)" fill="#fff"/><path d="M230.67,255.77,239.38,325,212.29,414.6s5,2.76,15.33,2L264.39,328l.52-56.31,11.95,48.58L299.75,415s11.65,2.56,18.51-2.38l-15.12-92.32L290.39,247Z" transform="translate(-108.76 -6.11)" fill="#606161"/><path d="M230.67,255.77,239.38,325,212.29,414.6s5,2.76,15.33,2L264.39,328l.52-56.31,11.95,48.58L299.75,415s11.65,2.56,18.51-2.38l-15.12-92.32L290.39,247Z" transform="translate(-108.76 -6.11)" fill="url(#linear-gradient)"/><path d="M227.83,420.75a.33.33,0,0,1-.29-.19.33.33,0,0,1,.16-.43c2.91-1.31,2.6-2.32,2.59-2.33a.35.35,0,0,1,.19-.42.32.32,0,0,1,.41.16,1.14,1.14,0,0,1,0,.86c-.31.82-1.28,1.6-2.89,2.32A.32.32,0,0,1,227.83,420.75Z" transform="translate(-108.76 -6.11)" fill="#fff"/><path d="M260.13,108.45s1.6,20.7,0,26.28-6.37,10.35-11.14,10.35-12-4-15.13-11.15-4.78-24.69-4-27.08,5.61-9.91,18.32-8.76C257,98.89,260.13,105.26,260.13,108.45Z" transform="translate(-108.76 -6.11)" fill="#c48067"/><path d="M230.84,118.65c.73,1.63,3.26,1.71,4.55.47a5.91,5.91,0,0,0,1.3-5c-.23-1.78-.83-3.49-.94-5.28a1.5,1.5,0,0,1,.28-1.16,1.46,1.46,0,0,1,1.15-.32c2.4.06,5.23,1,6.91-.7,1-1,1.3-2.79,2.65-3.28,1.11-.4,2.28.34,3.33.89a11,11,0,0,0,8.11.78,1.77,1.77,0,0,0,1.58-2.23,10.07,10.07,0,0,0-4.36-7.13,17.4,17.4,0,0,0-6.66-2.27,67.83,67.83,0,0,0-8.18-1,8.55,8.55,0,0,0-4.32.54c-1.36.68-2.29,2-3.4,3-1.55,1.46-3.55,2.48-4.74,4.25-1,1.43-3.07,1.39-3.8,4.9-.64,3.07-1.06,6.17-1.58,9.25s.76,6.27,1.4,9.33c1.33,6.3,1.33,6.3,3.61,8.45a19.12,19.12,0,0,0,4.55,2.9,2.57,2.57,0,0,0,1.95.4c.65-.22.9-1.31.27-1.56" transform="translate(-108.76 -6.11)" fill="#2a2d6b"/><path d="M233.51,121.87s-.8-4.78-4-3.18.8,10.35,2.39,11.15a4.56,4.56,0,0,0,2.38.67" transform="translate(-108.76 -6.11)" fill="#c48067"/><path d="M310.47,187.78,289.84,141.6s3.5-8.35,13.9-5.79c0,0,16.45,23.24,22.16,43.82C328.37,188.51,311.59,190.09,310.47,187.78Z" transform="translate(-108.76 -6.11)" fill="#68e1fd"/><circle cx="151.84" cy="90.47" r="50.18" fill="#68e1fd"/><path d="M310.33,103.28a50.17,50.17,0,1,1-43.45-56.49l.41.05A50.18,50.18,0,0,1,310.33,103.28Z" transform="translate(-108.76 -6.11)" fill="url(#linear-gradient-2)"/><path d="M310.33,103.28a50.2,50.2,0,0,1-42.94,43l-.4,0a50.2,50.2,0,0,1-.11-99.48l.41.05A50.18,50.18,0,0,1,310.33,103.28Z" transform="translate(-108.76 -6.11)" fill="url(#linear-gradient-3)"/><path d="M236.81,111.08l50.67-.23s-3.16,20-24.67,19.91C237.34,130.66,236.81,111.08,236.81,111.08Z" transform="translate(-108.76 -6.11)" fill="#68e1fd"/><path d="M236.81,111.08l50.67-.23s-3.16,20-24.67,19.91C237.34,130.66,236.81,111.08,236.81,111.08Z" transform="translate(-108.76 -6.11)" fill="url(#linear-gradient-4)"/><path d="M233.05,86.84a9.58,9.58,0,0,1,2.29-6.76c1.74-1.87,4.31-2.8,7.58-2.77s6,1,7.75,2.92a8.86,8.86,0,0,1,2.13,6.2l-2.57-.22A6.29,6.29,0,0,0,248.75,82c-1.24-1.34-3.2-2-5.85-2.06s-4.45.63-5.67,1.94a7.09,7.09,0,0,0-1.61,4.79Z" transform="translate(-108.76 -6.11)" fill="#68e1fd"/><path d="M233.05,86.84a9.58,9.58,0,0,1,2.29-6.76c1.74-1.87,4.31-2.8,7.58-2.77s6,1,7.75,2.92a8.86,8.86,0,0,1,2.13,6.2l-2.57-.22A6.29,6.29,0,0,0,248.75,82c-1.24-1.34-3.2-2-5.85-2.06s-4.45.63-5.67,1.94a7.09,7.09,0,0,0-1.61,4.79Z" transform="translate(-108.76 -6.11)" fill="url(#linear-gradient-5)"/><path d="M267.17,86.51a9.64,9.64,0,0,1,2.29-6.76c1.74-1.87,4.31-2.81,7.58-2.77s6,1,7.76,2.92a8.78,8.78,0,0,1,2.12,6.2l-2.57-.22a6.18,6.18,0,0,0-1.48-4.26c-1.23-1.35-3.2-2-5.85-2.06s-4.44.62-5.67,1.94a7.09,7.09,0,0,0-1.61,4.79Z" transform="translate(-108.76 -6.11)" fill="#68e1fd"/><path d="M267.17,86.51a9.64,9.64,0,0,1,2.29-6.76c1.74-1.87,4.31-2.81,7.58-2.77s6,1,7.76,2.92a8.78,8.78,0,0,1,2.12,6.2l-2.57-.22a6.18,6.18,0,0,0-1.48-4.26c-1.23-1.35-3.2-2-5.85-2.06s-4.44.62-5.67,1.94a7.09,7.09,0,0,0-1.61,4.79Z" transform="translate(-108.76 -6.11)" fill="url(#linear-gradient-6)"/><path d="M296.54,120.3a4.43,4.43,0,0,0-1.74-1.62,3.75,3.75,0,0,0-2.73.14,8.75,8.75,0,0,0-5.48,7c-.25,2.22.37,4.44.42,6.67a3,3,0,0,1-.2,1.34A4.54,4.54,0,0,1,285,135.5c-.68.48-1.34,1.25-1.14,2.05a2.05,2.05,0,0,0,1.82,1.25,6.06,6.06,0,0,1,2.26.5,3.8,3.8,0,0,0,1.07.64,2,2,0,0,0,.88-.08l8.62-2.11c3.91-.95,3.09-4.05,2.43-7.31A26.52,26.52,0,0,0,296.54,120.3Z" transform="translate(-108.76 -6.11)" fill="#c48067"/><path d="M334.47,423.23a3.93,3.93,0,0,1,1.52,1.42c.74,1.47-.44,3.21-1.79,4.16a18,18,0,0,1-7.29,2.58,84.75,84.75,0,0,1-21.86,1.1,3.88,3.88,0,0,1-1.9-.51,3.5,3.5,0,0,1-1.13-1.76,16.12,16.12,0,0,1-.84-7.32c-.1.83,8.13-1.34,8.79-1.66,2.26-1.09,4.58-4.55,6.84-5.08s6.18,2.21,8.36,3A51.23,51.23,0,0,1,334.47,423.23Z" transform="translate(-108.76 -6.11)" fill="#606161"/><path d="M242.09,428a3.78,3.78,0,0,1,1.32,1.6c.55,1.55-.85,3.12-2.31,3.89a18.06,18.06,0,0,1-7.57,1.62,84.08,84.08,0,0,1-21.81-1.74,3.77,3.77,0,0,1-1.82-.74,3.52,3.52,0,0,1-.9-1.89,16.1,16.1,0,0,1,.12-7.37c-.2.81,8.23-.28,8.93-.51,2.38-.8,5.13-3.92,7.44-4.15s5.84,3,7.89,4.07A51.12,51.12,0,0,1,242.09,428Z" transform="translate(-108.76 -6.11)" fill="#606161"/><path d="M334.47,423.23a3.93,3.93,0,0,1,1.52,1.42c.74,1.47-.44,3.21-1.79,4.16a18,18,0,0,1-7.29,2.58,84.75,84.75,0,0,1-21.86,1.1,3.88,3.88,0,0,1-1.9-.51,3.5,3.5,0,0,1-1.13-1.76,16.12,16.12,0,0,1-.84-7.32c-.1.83,8.13-1.34,8.79-1.66,2.26-1.09,4.58-4.55,6.84-5.08s6.18,2.21,8.36,3A51.23,51.23,0,0,1,334.47,423.23Z" transform="translate(-108.76 -6.11)" fill="url(#linear-gradient-7)"/><path d="M242.09,428a3.78,3.78,0,0,1,1.32,1.6c.55,1.55-.85,3.12-2.31,3.89a18.06,18.06,0,0,1-7.57,1.62,84.08,84.08,0,0,1-21.81-1.74,3.77,3.77,0,0,1-1.82-.74,3.52,3.52,0,0,1-.9-1.89,16.1,16.1,0,0,1,.12-7.37c-.2.81,8.23-.28,8.93-.51,2.38-.8,5.13-3.92,7.44-4.15s5.84,3,7.89,4.07A51.12,51.12,0,0,1,242.09,428Z" transform="translate(-108.76 -6.11)" fill="url(#linear-gradient-8)"/><path d="M243.19,258.78c-6.82,0-12.17-.89-12.52-3-.55-3.16-7.4-52.35-11.6-86.29a9,9,0,0,1-.74-1.18c-3.47-6.59-20.32-34.22-23.45-45.65,6.18,11.43,13.07,22.52,22.37,31.44.38.42.77.77,1.18,1.15,4.33,4,9.18,7.49,12.46,12.36a29.33,29.33,0,0,1,4,9.08c1.94,7.52,1.59,15.9,1.66,23.81C236.66,216.85,247.17,241.2,243.19,258.78Z" transform="translate(-108.76 -6.11)" fill="url(#linear-gradient-9)"/><path d="M325.42,184.21a6.44,6.44,0,0,0-2.8,3.81s0,0,0,0c-1.88,2.52-3.89,1.88-6,1.88-3.79,0-26.16-5.13-34.85-8.79h0c-1.53-2.87-2.1-6.41-1.78-11A287.76,287.76,0,0,0,319.59,181c1.15.22,5.84-.14,6.51.81C326.51,182.46,326,183.76,325.42,184.21Z" transform="translate(-108.76 -6.11)" fill="url(#linear-gradient-10)"/><path d="M305.09,168.64c1.66,1.42,3.71,2.75,5.87,2.43.52-1.54-.41-3.15-1.3-4.5A69.19,69.19,0,0,1,302.82,154c-1.85-4.79-2.76-10-5.32-14.42a1.53,1.53,0,0,0-1.82-1,41.08,41.08,0,0,0-5.07.64c-.5.09-1.09.27-1.23.76a1.48,1.48,0,0,0,.28,1C295,150.39,296.71,161.46,305.09,168.64Z" transform="translate(-108.76 -6.11)" fill="url(#linear-gradient-11)"/><path d="M214.8,123.56c-2.93-2.58-6.06-5.42-6.92-9.21a21.08,21.08,0,0,1-.25-4.62q.33-10.42.86-20.84c.09-1.75-.57-8,1.62-8.38a1.92,1.92,0,0,1,.74.07,0,0,0,0,1,0,0,4.77,4.77,0,0,1,1.53,2.07l.51,35.08.64,1.18A25,25,0,0,0,214.8,123.56Z" transform="translate(-108.76 -6.11)" fill="url(#linear-gradient-12)"/></svg>